<?xml version="1.0" encoding="UTF-8"?> <svg xmlns="http://www.w3.org/2000/svg" xmlns:xlink="http://www.w3.org/1999/xlink" id="Layer_2" data-name="Layer 2" viewBox="0 0 162.7 171.8"><defs><style> .cls-1 { fill: url(#linear-gradient-2); } .cls-2 { fill: url(#linear-gradient-6); } .cls-3 { fill: url(#linear-gradient-5); } .cls-4 { fill: url(#linear-gradient-3); } .cls-5 { fill: url(#linear-gradient); } .cls-6 { fill: url(#linear-gradient-4); } </style><linearGradient id="linear-gradient" x1=".1" y1="172.24" x2="162.6" y2="172.24" gradientTransform="translate(0 204.09) scale(1 -1)" gradientUnits="userSpaceOnUse"><stop offset=".04" stop-color="#8379b2"></stop><stop offset=".41" stop-color="#be2284"></stop><stop offset=".77" stop-color="#f49509"></stop></linearGradient><linearGradient id="linear-gradient-2" y1="155.59" x2="162.7" y2="155.59" xlink:href="#linear-gradient"></linearGradient><linearGradient id="linear-gradient-3" y1="138.94" x2="162.7" y2="138.94" xlink:href="#linear-gradient"></linearGradient><linearGradient id="linear-gradient-4" x1="0" y1="67.59" x2="162.7" y2="67.59" gradientTransform="translate(0 204.09) scale(1 -1)" gradientUnits="userSpaceOnUse"><stop offset=".23" stop-color="#f49509"></stop><stop offset=".59" stop-color="#be2284"></stop><stop offset=".96" stop-color="#8379b2"></stop></linearGradient><linearGradient id="linear-gradient-5" x1=".1" y1="89.79" y2="89.79" xlink:href="#linear-gradient-4"></linearGradient><linearGradient id="linear-gradient-6" x1=".1" y1="111.99" y2="111.99" xlink:href="#linear-gradient-4"></linearGradient></defs><g id="Layer_1-2" data-name="Layer 1"><polygon class="cls-5" points=".1 0 .1 13.8 142.9 63.7 162.6 56.8 .1 0"></polygon><polygon class="cls-1" points=".1 22.2 .1 36 111.1 74.8 130.8 67.9 .1 22.2"></polygon><polygon class="cls-4" points=".1 44.4 .1 58.2 79.4 85.9 99.1 79 .1 44.4"></polygon><polygon class="cls-6" points="0 158.2 0 171.8 162.7 115.1 162.7 101.2 0 158.2"></polygon><polygon class="cls-3" points=".1 135.9 .1 149.6 162.7 92.8 162.7 79 .1 135.9"></polygon><polygon class="cls-2" points=".1 113.7 .1 127.4 162.7 70.6 162.6 56.8 .1 113.7"></polygon></g></svg> 